<mxfile host="app.diagrams.net" modified="2024-05-14T18:35:08.826Z" agent="Mozilla/5.0 (Windows NT 10.0; Win64; x64) AppleWebKit/537.36 (KHTML, like Gecko) Chrome/124.0.0.0 Safari/537.36" etag="7iLH1x2nlPbtx05WHbN5" version="24.4.0" type="google" pages="3">
  <diagram name="courses" id="C-MWS4YewMe-2pKJ4riY">
    <mxGraphModel dx="1268" dy="1425" grid="0" gridSize="10" guides="1" tooltips="1" connect="1" arrows="1" fold="1" page="0" pageScale="1" pageWidth="827" pageHeight="1169" math="0" shadow="0">
      <root>
        <mxCell id="0" />
        <mxCell id="1" parent="0" />
        <mxCell id="q1aDuHeKMxjZmJrZDJ7N-1" style="edgeStyle=none;curved=1;rounded=0;orthogonalLoop=1;jettySize=auto;html=1;exitX=0;exitY=1;exitDx=0;exitDy=0;fontSize=12;startSize=8;endSize=8;" edge="1" parent="1" source="q1aDuHeKMxjZmJrZDJ7N-2" target="q1aDuHeKMxjZmJrZDJ7N-4">
          <mxGeometry relative="1" as="geometry" />
        </mxCell>
        <mxCell id="q1aDuHeKMxjZmJrZDJ7N-2" value="&lt;font style=&quot;font-size: 16px;&quot;&gt;course 1&lt;/font&gt;" style="ellipse;whiteSpace=wrap;html=1;aspect=fixed;" vertex="1" parent="1">
          <mxGeometry x="84" y="-8" width="80" height="80" as="geometry" />
        </mxCell>
        <mxCell id="q1aDuHeKMxjZmJrZDJ7N-3" style="edgeStyle=none;curved=1;rounded=0;orthogonalLoop=1;jettySize=auto;html=1;exitX=0;exitY=1;exitDx=0;exitDy=0;fontSize=12;startSize=8;endSize=8;" edge="1" parent="1" source="q1aDuHeKMxjZmJrZDJ7N-4" target="q1aDuHeKMxjZmJrZDJ7N-18">
          <mxGeometry relative="1" as="geometry" />
        </mxCell>
        <mxCell id="q1aDuHeKMxjZmJrZDJ7N-4" value="&lt;font style=&quot;font-size: 16px;&quot;&gt;course 2&lt;/font&gt;" style="ellipse;whiteSpace=wrap;html=1;aspect=fixed;" vertex="1" parent="1">
          <mxGeometry x="20" y="113" width="80" height="80" as="geometry" />
        </mxCell>
        <mxCell id="q1aDuHeKMxjZmJrZDJ7N-5" style="edgeStyle=none;curved=1;rounded=0;orthogonalLoop=1;jettySize=auto;html=1;exitX=0.5;exitY=0;exitDx=0;exitDy=0;fontSize=12;startSize=8;endSize=8;" edge="1" parent="1" source="q1aDuHeKMxjZmJrZDJ7N-7" target="q1aDuHeKMxjZmJrZDJ7N-2">
          <mxGeometry relative="1" as="geometry" />
        </mxCell>
        <mxCell id="q1aDuHeKMxjZmJrZDJ7N-6" style="edgeStyle=none;curved=1;rounded=0;orthogonalLoop=1;jettySize=auto;html=1;exitX=0.5;exitY=1;exitDx=0;exitDy=0;fontSize=12;startSize=8;endSize=8;" edge="1" parent="1" source="q1aDuHeKMxjZmJrZDJ7N-7" target="q1aDuHeKMxjZmJrZDJ7N-14">
          <mxGeometry relative="1" as="geometry" />
        </mxCell>
        <mxCell id="q1aDuHeKMxjZmJrZDJ7N-7" value="&lt;font style=&quot;font-size: 16px;&quot;&gt;course 3&lt;/font&gt;" style="ellipse;whiteSpace=wrap;html=1;aspect=fixed;" vertex="1" parent="1">
          <mxGeometry x="137" y="145" width="80" height="80" as="geometry" />
        </mxCell>
        <mxCell id="q1aDuHeKMxjZmJrZDJ7N-8" style="edgeStyle=none;curved=1;rounded=0;orthogonalLoop=1;jettySize=auto;html=1;exitX=1;exitY=1;exitDx=0;exitDy=0;fontSize=12;startSize=8;endSize=8;" edge="1" parent="1" source="q1aDuHeKMxjZmJrZDJ7N-9" target="q1aDuHeKMxjZmJrZDJ7N-4">
          <mxGeometry relative="1" as="geometry" />
        </mxCell>
        <mxCell id="q1aDuHeKMxjZmJrZDJ7N-9" value="&lt;font style=&quot;font-size: 16px;&quot;&gt;course 4&lt;/font&gt;" style="ellipse;whiteSpace=wrap;html=1;aspect=fixed;" vertex="1" parent="1">
          <mxGeometry x="-70" y="17" width="80" height="80" as="geometry" />
        </mxCell>
        <mxCell id="q1aDuHeKMxjZmJrZDJ7N-10" style="edgeStyle=none;curved=1;rounded=0;orthogonalLoop=1;jettySize=auto;html=1;exitX=0.5;exitY=0;exitDx=0;exitDy=0;entryX=0;entryY=0.5;entryDx=0;entryDy=0;fontSize=12;startSize=8;endSize=8;" edge="1" parent="1" source="q1aDuHeKMxjZmJrZDJ7N-11" target="q1aDuHeKMxjZmJrZDJ7N-9">
          <mxGeometry relative="1" as="geometry" />
        </mxCell>
        <mxCell id="q1aDuHeKMxjZmJrZDJ7N-11" value="&lt;font style=&quot;font-size: 16px;&quot;&gt;course 5&lt;/font&gt;" style="ellipse;whiteSpace=wrap;html=1;aspect=fixed;" vertex="1" parent="1">
          <mxGeometry x="-150" y="186" width="80" height="80" as="geometry" />
        </mxCell>
        <mxCell id="q1aDuHeKMxjZmJrZDJ7N-12" style="edgeStyle=none;curved=1;rounded=0;orthogonalLoop=1;jettySize=auto;html=1;exitX=0;exitY=1;exitDx=0;exitDy=0;fontSize=12;startSize=8;endSize=8;" edge="1" parent="1" source="q1aDuHeKMxjZmJrZDJ7N-14" target="q1aDuHeKMxjZmJrZDJ7N-15">
          <mxGeometry relative="1" as="geometry" />
        </mxCell>
        <mxCell id="q1aDuHeKMxjZmJrZDJ7N-13" style="edgeStyle=none;curved=1;rounded=0;orthogonalLoop=1;jettySize=auto;html=1;exitX=1;exitY=0.5;exitDx=0;exitDy=0;entryX=0;entryY=0.5;entryDx=0;entryDy=0;fontSize=12;startSize=8;endSize=8;" edge="1" parent="1" source="q1aDuHeKMxjZmJrZDJ7N-14" target="q1aDuHeKMxjZmJrZDJ7N-17">
          <mxGeometry relative="1" as="geometry" />
        </mxCell>
        <mxCell id="q1aDuHeKMxjZmJrZDJ7N-14" value="&lt;font style=&quot;font-size: 16px;&quot;&gt;course 6&lt;/font&gt;" style="ellipse;whiteSpace=wrap;html=1;aspect=fixed;" vertex="1" parent="1">
          <mxGeometry x="90" y="274" width="80" height="80" as="geometry" />
        </mxCell>
        <mxCell id="q1aDuHeKMxjZmJrZDJ7N-15" value="&lt;font style=&quot;font-size: 16px;&quot;&gt;course 7&lt;/font&gt;" style="ellipse;whiteSpace=wrap;html=1;aspect=fixed;" vertex="1" parent="1">
          <mxGeometry x="4" y="362" width="80" height="80" as="geometry" />
        </mxCell>
        <mxCell id="q1aDuHeKMxjZmJrZDJ7N-16" style="edgeStyle=none;curved=1;rounded=0;orthogonalLoop=1;jettySize=auto;html=1;exitX=0.5;exitY=0;exitDx=0;exitDy=0;entryX=1;entryY=1;entryDx=0;entryDy=0;fontSize=12;startSize=8;endSize=8;" edge="1" parent="1" source="q1aDuHeKMxjZmJrZDJ7N-17" target="q1aDuHeKMxjZmJrZDJ7N-7">
          <mxGeometry relative="1" as="geometry" />
        </mxCell>
        <mxCell id="q1aDuHeKMxjZmJrZDJ7N-17" value="&lt;font style=&quot;font-size: 16px;&quot;&gt;course 8&lt;/font&gt;" style="ellipse;whiteSpace=wrap;html=1;aspect=fixed;" vertex="1" parent="1">
          <mxGeometry x="223" y="268" width="80" height="80" as="geometry" />
        </mxCell>
        <mxCell id="q1aDuHeKMxjZmJrZDJ7N-18" value="&lt;font style=&quot;font-size: 16px;&quot;&gt;course 9&lt;/font&gt;" style="ellipse;whiteSpace=wrap;html=1;aspect=fixed;" vertex="1" parent="1">
          <mxGeometry x="-47" y="181" width="80" height="80" as="geometry" />
        </mxCell>
        <mxCell id="q1aDuHeKMxjZmJrZDJ7N-19" style="edgeStyle=none;curved=1;rounded=0;orthogonalLoop=1;jettySize=auto;html=1;exitX=0;exitY=0;exitDx=0;exitDy=0;entryX=0.5;entryY=1;entryDx=0;entryDy=0;fontSize=12;startSize=8;endSize=8;" edge="1" parent="1" source="q1aDuHeKMxjZmJrZDJ7N-20" target="q1aDuHeKMxjZmJrZDJ7N-11">
          <mxGeometry relative="1" as="geometry" />
        </mxCell>
        <mxCell id="q1aDuHeKMxjZmJrZDJ7N-20" value="&lt;font style=&quot;font-size: 16px;&quot;&gt;course 10&lt;/font&gt;" style="ellipse;whiteSpace=wrap;html=1;aspect=fixed;" vertex="1" parent="1">
          <mxGeometry x="-64" y="285" width="80" height="80" as="geometry" />
        </mxCell>
      </root>
    </mxGraphModel>
  </diagram>
  <diagram id="lHgukIFk6JQnWcJQc-xX" name="teachers">
    <mxGraphModel dx="2003" dy="1357" grid="0" gridSize="10" guides="1" tooltips="1" connect="1" arrows="1" fold="1" page="0" pageScale="1" pageWidth="827" pageHeight="1169" math="0" shadow="0">
      <root>
        <mxCell id="0" />
        <mxCell id="1" parent="0" />
        <mxCell id="ZVkdkxATn_ZEleP4FnxN-1" value="&lt;span style=&quot;font-size: 16px;&quot;&gt;course 1&lt;/span&gt;" style="ellipse;whiteSpace=wrap;html=1;aspect=fixed;" vertex="1" parent="1">
          <mxGeometry x="-642" y="516" width="80" height="80" as="geometry" />
        </mxCell>
        <mxCell id="ZVkdkxATn_ZEleP4FnxN-2" value="&lt;font style=&quot;font-size: 16px;&quot;&gt;course 2&lt;/font&gt;" style="ellipse;whiteSpace=wrap;html=1;aspect=fixed;" vertex="1" parent="1">
          <mxGeometry x="-1049" y="527" width="80" height="80" as="geometry" />
        </mxCell>
        <mxCell id="ZVkdkxATn_ZEleP4FnxN-3" value="&lt;span style=&quot;font-size: 16px;&quot;&gt;course 3&lt;/span&gt;" style="ellipse;whiteSpace=wrap;html=1;aspect=fixed;" vertex="1" parent="1">
          <mxGeometry x="-301" y="527" width="80" height="80" as="geometry" />
        </mxCell>
        <mxCell id="ZVkdkxATn_ZEleP4FnxN-4" value="&lt;span style=&quot;font-size: 16px;&quot;&gt;course 4&lt;/span&gt;" style="ellipse;whiteSpace=wrap;html=1;aspect=fixed;" vertex="1" parent="1">
          <mxGeometry x="49" y="500" width="80" height="80" as="geometry" />
        </mxCell>
        <mxCell id="ZVkdkxATn_ZEleP4FnxN-5" value="&lt;span style=&quot;font-size: 16px;&quot;&gt;course 9&lt;/span&gt;" style="ellipse;whiteSpace=wrap;html=1;aspect=fixed;" vertex="1" parent="1">
          <mxGeometry x="-829" y="516" width="80" height="80" as="geometry" />
        </mxCell>
        <mxCell id="ZVkdkxATn_ZEleP4FnxN-6" style="edgeStyle=none;curved=1;rounded=0;orthogonalLoop=1;jettySize=auto;html=1;exitX=0.5;exitY=0;exitDx=0;exitDy=0;entryX=0;entryY=1;entryDx=0;entryDy=0;fontSize=12;startSize=8;endSize=8;" edge="1" parent="1" source="ZVkdkxATn_ZEleP4FnxN-8" target="ZVkdkxATn_ZEleP4FnxN-1">
          <mxGeometry relative="1" as="geometry" />
        </mxCell>
        <mxCell id="ZVkdkxATn_ZEleP4FnxN-7" style="edgeStyle=none;curved=1;rounded=0;orthogonalLoop=1;jettySize=auto;html=1;exitX=0.5;exitY=0;exitDx=0;exitDy=0;fontSize=12;startSize=8;endSize=8;" edge="1" parent="1" source="ZVkdkxATn_ZEleP4FnxN-8" target="ZVkdkxATn_ZEleP4FnxN-5">
          <mxGeometry relative="1" as="geometry" />
        </mxCell>
        <mxCell id="ZVkdkxATn_ZEleP4FnxN-8" value="&lt;span style=&quot;font-size: 16px;&quot;&gt;teacher 1&lt;/span&gt;" style="whiteSpace=wrap;html=1;aspect=fixed;" vertex="1" parent="1">
          <mxGeometry x="-756" y="667" width="80" height="80" as="geometry" />
        </mxCell>
        <mxCell id="ZVkdkxATn_ZEleP4FnxN-9" style="edgeStyle=none;curved=1;rounded=0;orthogonalLoop=1;jettySize=auto;html=1;exitX=0.5;exitY=0;exitDx=0;exitDy=0;entryX=0.5;entryY=1;entryDx=0;entryDy=0;fontSize=12;startSize=8;endSize=8;" edge="1" parent="1" source="ZVkdkxATn_ZEleP4FnxN-10" target="ZVkdkxATn_ZEleP4FnxN-2">
          <mxGeometry relative="1" as="geometry" />
        </mxCell>
        <mxCell id="ZVkdkxATn_ZEleP4FnxN-10" value="&lt;font style=&quot;font-size: 16px;&quot;&gt;teacher 2&lt;/font&gt;" style="whiteSpace=wrap;html=1;aspect=fixed;" vertex="1" parent="1">
          <mxGeometry x="-1049" y="674" width="80" height="80" as="geometry" />
        </mxCell>
        <mxCell id="ZVkdkxATn_ZEleP4FnxN-11" style="edgeStyle=none;curved=1;rounded=0;orthogonalLoop=1;jettySize=auto;html=1;exitX=0.5;exitY=0;exitDx=0;exitDy=0;entryX=0;entryY=1;entryDx=0;entryDy=0;fontSize=12;startSize=8;endSize=8;" edge="1" parent="1" source="ZVkdkxATn_ZEleP4FnxN-12" target="ZVkdkxATn_ZEleP4FnxN-3">
          <mxGeometry relative="1" as="geometry" />
        </mxCell>
        <mxCell id="ZVkdkxATn_ZEleP4FnxN-12" value="&lt;span style=&quot;font-size: 16px;&quot;&gt;teacher 3&lt;/span&gt;" style="whiteSpace=wrap;html=1;aspect=fixed;" vertex="1" parent="1">
          <mxGeometry x="-374" y="667" width="80" height="80" as="geometry" />
        </mxCell>
        <mxCell id="ZVkdkxATn_ZEleP4FnxN-13" style="edgeStyle=none;curved=1;rounded=0;orthogonalLoop=1;jettySize=auto;html=1;exitX=0.5;exitY=0;exitDx=0;exitDy=0;entryX=1;entryY=1;entryDx=0;entryDy=0;fontSize=12;startSize=8;endSize=8;" edge="1" parent="1" source="ZVkdkxATn_ZEleP4FnxN-14" target="ZVkdkxATn_ZEleP4FnxN-3">
          <mxGeometry relative="1" as="geometry" />
        </mxCell>
        <mxCell id="ZVkdkxATn_ZEleP4FnxN-14" value="&lt;span style=&quot;font-size: 16px;&quot;&gt;teacher 4&lt;/span&gt;" style="whiteSpace=wrap;html=1;aspect=fixed;" vertex="1" parent="1">
          <mxGeometry x="-240" y="667" width="80" height="80" as="geometry" />
        </mxCell>
        <mxCell id="ZVkdkxATn_ZEleP4FnxN-15" style="edgeStyle=none;curved=1;rounded=0;orthogonalLoop=1;jettySize=auto;html=1;exitX=0.5;exitY=0;exitDx=0;exitDy=0;entryX=0.5;entryY=1;entryDx=0;entryDy=0;fontSize=12;startSize=8;endSize=8;" edge="1" parent="1" source="ZVkdkxATn_ZEleP4FnxN-16" target="ZVkdkxATn_ZEleP4FnxN-1">
          <mxGeometry relative="1" as="geometry" />
        </mxCell>
        <mxCell id="ZVkdkxATn_ZEleP4FnxN-16" value="&lt;span style=&quot;font-size: 16px;&quot;&gt;teacher 5&lt;/span&gt;" style="whiteSpace=wrap;html=1;aspect=fixed;" vertex="1" parent="1">
          <mxGeometry x="-642" y="667" width="80" height="80" as="geometry" />
        </mxCell>
        <mxCell id="ZVkdkxATn_ZEleP4FnxN-17" style="edgeStyle=none;curved=1;rounded=0;orthogonalLoop=1;jettySize=auto;html=1;exitX=0.5;exitY=0;exitDx=0;exitDy=0;entryX=0.5;entryY=1;entryDx=0;entryDy=0;fontSize=12;startSize=8;endSize=8;" edge="1" parent="1" source="ZVkdkxATn_ZEleP4FnxN-18" target="ZVkdkxATn_ZEleP4FnxN-4">
          <mxGeometry relative="1" as="geometry" />
        </mxCell>
        <mxCell id="ZVkdkxATn_ZEleP4FnxN-18" value="&lt;span style=&quot;font-size: 16px;&quot;&gt;teacher 6&lt;/span&gt;" style="whiteSpace=wrap;html=1;aspect=fixed;" vertex="1" parent="1">
          <mxGeometry x="-92" y="663" width="80" height="80" as="geometry" />
        </mxCell>
        <mxCell id="ZVkdkxATn_ZEleP4FnxN-19" style="edgeStyle=none;curved=1;rounded=0;orthogonalLoop=1;jettySize=auto;html=1;exitX=0.5;exitY=0;exitDx=0;exitDy=0;fontSize=12;startSize=8;endSize=8;" edge="1" parent="1" source="ZVkdkxATn_ZEleP4FnxN-20" target="ZVkdkxATn_ZEleP4FnxN-4">
          <mxGeometry relative="1" as="geometry" />
        </mxCell>
        <mxCell id="ZVkdkxATn_ZEleP4FnxN-20" value="&lt;span style=&quot;font-size: 16px;&quot;&gt;teacher 7&lt;/span&gt;" style="whiteSpace=wrap;html=1;aspect=fixed;" vertex="1" parent="1">
          <mxGeometry x="49" y="663" width="80" height="80" as="geometry" />
        </mxCell>
        <mxCell id="ZVkdkxATn_ZEleP4FnxN-21" style="edgeStyle=none;curved=1;rounded=0;orthogonalLoop=1;jettySize=auto;html=1;exitX=0.5;exitY=0;exitDx=0;exitDy=0;entryX=1;entryY=1;entryDx=0;entryDy=0;fontSize=12;startSize=8;endSize=8;" edge="1" parent="1" source="ZVkdkxATn_ZEleP4FnxN-22" target="ZVkdkxATn_ZEleP4FnxN-1">
          <mxGeometry relative="1" as="geometry" />
        </mxCell>
        <mxCell id="ZVkdkxATn_ZEleP4FnxN-22" value="&lt;span style=&quot;font-size: 16px;&quot;&gt;teacher 8&lt;/span&gt;" style="whiteSpace=wrap;html=1;aspect=fixed;" vertex="1" parent="1">
          <mxGeometry x="-522" y="667" width="80" height="80" as="geometry" />
        </mxCell>
        <mxCell id="ZVkdkxATn_ZEleP4FnxN-23" style="edgeStyle=none;curved=1;rounded=0;orthogonalLoop=1;jettySize=auto;html=1;exitX=0.5;exitY=0;exitDx=0;exitDy=0;entryX=0.5;entryY=1;entryDx=0;entryDy=0;fontSize=12;startSize=8;endSize=8;" edge="1" parent="1" source="ZVkdkxATn_ZEleP4FnxN-24" target="ZVkdkxATn_ZEleP4FnxN-4">
          <mxGeometry relative="1" as="geometry" />
        </mxCell>
        <mxCell id="ZVkdkxATn_ZEleP4FnxN-24" value="&lt;span style=&quot;font-size: 16px;&quot;&gt;teacher 9&lt;/span&gt;" style="whiteSpace=wrap;html=1;aspect=fixed;" vertex="1" parent="1">
          <mxGeometry x="188" y="663" width="80" height="80" as="geometry" />
        </mxCell>
        <mxCell id="ZVkdkxATn_ZEleP4FnxN-25" style="edgeStyle=none;curved=1;rounded=0;orthogonalLoop=1;jettySize=auto;html=1;exitX=0.5;exitY=0;exitDx=0;exitDy=0;fontSize=12;startSize=8;endSize=8;" edge="1" parent="1" source="ZVkdkxATn_ZEleP4FnxN-26" target="ZVkdkxATn_ZEleP4FnxN-5">
          <mxGeometry relative="1" as="geometry" />
        </mxCell>
        <mxCell id="ZVkdkxATn_ZEleP4FnxN-26" value="&lt;span style=&quot;font-size: 16px;&quot;&gt;teacher 10&lt;/span&gt;" style="whiteSpace=wrap;html=1;aspect=fixed;" vertex="1" parent="1">
          <mxGeometry x="-912" y="667" width="80" height="80" as="geometry" />
        </mxCell>
      </root>
    </mxGraphModel>
  </diagram>
  <diagram id="F30UKmHJrjzEK4A1C16f" name="students">
    <mxGraphModel dx="3100" dy="479" grid="0" gridSize="10" guides="1" tooltips="1" connect="1" arrows="1" fold="1" page="0" pageScale="1" pageWidth="827" pageHeight="1169" math="0" shadow="0">
      <root>
        <mxCell id="0" />
        <mxCell id="1" parent="0" />
        <mxCell id="RaNo0yJvgZaHMr59IowX-1" value="&lt;font style=&quot;font-size: 16px;&quot;&gt;course 1&lt;/font&gt;" style="ellipse;whiteSpace=wrap;html=1;aspect=fixed;" vertex="1" parent="1">
          <mxGeometry x="-522" y="516" width="80" height="80" as="geometry" />
        </mxCell>
        <mxCell id="RaNo0yJvgZaHMr59IowX-2" value="&lt;font style=&quot;font-size: 16px;&quot;&gt;course 6&lt;/font&gt;" style="ellipse;whiteSpace=wrap;html=1;aspect=fixed;" vertex="1" parent="1">
          <mxGeometry x="-1049" y="527" width="80" height="80" as="geometry" />
        </mxCell>
        <mxCell id="RaNo0yJvgZaHMr59IowX-3" value="&lt;font style=&quot;font-size: 16px;&quot;&gt;course 3&lt;/font&gt;" style="ellipse;whiteSpace=wrap;html=1;aspect=fixed;" vertex="1" parent="1">
          <mxGeometry x="-638" y="531" width="80" height="80" as="geometry" />
        </mxCell>
        <mxCell id="RaNo0yJvgZaHMr59IowX-4" value="&lt;font style=&quot;font-size: 16px;&quot;&gt;course 2&lt;/font&gt;" style="ellipse;whiteSpace=wrap;html=1;aspect=fixed;" vertex="1" parent="1">
          <mxGeometry x="-908" y="527" width="80" height="80" as="geometry" />
        </mxCell>
        <mxCell id="RaNo0yJvgZaHMr59IowX-5" style="edgeStyle=none;curved=1;rounded=0;orthogonalLoop=1;jettySize=auto;html=1;exitX=0.5;exitY=0;exitDx=0;exitDy=0;entryX=0.5;entryY=1;entryDx=0;entryDy=0;fontSize=12;startSize=8;endSize=8;" edge="1" parent="1" source="RaNo0yJvgZaHMr59IowX-6" target="RaNo0yJvgZaHMr59IowX-24">
          <mxGeometry relative="1" as="geometry" />
        </mxCell>
        <mxCell id="RaNo0yJvgZaHMr59IowX-6" value="&lt;font style=&quot;font-size: 16px;&quot;&gt;student 3&lt;/font&gt;" style="whiteSpace=wrap;html=1;aspect=fixed;" vertex="1" parent="1">
          <mxGeometry x="-756" y="667" width="80" height="80" as="geometry" />
        </mxCell>
        <mxCell id="RaNo0yJvgZaHMr59IowX-7" style="edgeStyle=none;curved=1;rounded=0;orthogonalLoop=1;jettySize=auto;html=1;exitX=0.5;exitY=0;exitDx=0;exitDy=0;entryX=0.5;entryY=1;entryDx=0;entryDy=0;fontSize=12;startSize=8;endSize=8;" edge="1" parent="1" source="RaNo0yJvgZaHMr59IowX-9" target="RaNo0yJvgZaHMr59IowX-2">
          <mxGeometry relative="1" as="geometry" />
        </mxCell>
        <mxCell id="RaNo0yJvgZaHMr59IowX-8" style="edgeStyle=none;curved=1;rounded=0;orthogonalLoop=1;jettySize=auto;html=1;exitX=0.5;exitY=0;exitDx=0;exitDy=0;entryX=0.5;entryY=1;entryDx=0;entryDy=0;fontSize=12;startSize=8;endSize=8;" edge="1" parent="1" source="RaNo0yJvgZaHMr59IowX-9" target="RaNo0yJvgZaHMr59IowX-26">
          <mxGeometry relative="1" as="geometry" />
        </mxCell>
        <mxCell id="RaNo0yJvgZaHMr59IowX-9" value="&lt;font style=&quot;font-size: 16px;&quot;&gt;student 1&lt;/font&gt;" style="whiteSpace=wrap;html=1;aspect=fixed;" vertex="1" parent="1">
          <mxGeometry x="-1113" y="663" width="80" height="80" as="geometry" />
        </mxCell>
        <mxCell id="RaNo0yJvgZaHMr59IowX-10" style="edgeStyle=none;curved=1;rounded=0;orthogonalLoop=1;jettySize=auto;html=1;exitX=0.5;exitY=0;exitDx=0;exitDy=0;entryX=0.5;entryY=1;entryDx=0;entryDy=0;fontSize=12;startSize=8;endSize=8;" edge="1" parent="1" source="RaNo0yJvgZaHMr59IowX-11" target="RaNo0yJvgZaHMr59IowX-25">
          <mxGeometry relative="1" as="geometry" />
        </mxCell>
        <mxCell id="RaNo0yJvgZaHMr59IowX-11" value="&lt;font style=&quot;font-size: 16px;&quot;&gt;tag 6&lt;/font&gt;" style="whiteSpace=wrap;html=1;aspect=fixed;" vertex="1" parent="1">
          <mxGeometry x="-374" y="667" width="80" height="80" as="geometry" />
        </mxCell>
        <mxCell id="RaNo0yJvgZaHMr59IowX-12" style="edgeStyle=none;curved=1;rounded=0;orthogonalLoop=1;jettySize=auto;html=1;exitX=0.5;exitY=0;exitDx=0;exitDy=0;entryX=1;entryY=1;entryDx=0;entryDy=0;fontSize=12;startSize=8;endSize=8;" edge="1" parent="1" source="RaNo0yJvgZaHMr59IowX-13" target="RaNo0yJvgZaHMr59IowX-4">
          <mxGeometry relative="1" as="geometry" />
        </mxCell>
        <mxCell id="RaNo0yJvgZaHMr59IowX-13" value="&lt;font style=&quot;font-size: 16px;&quot;&gt;student 7&lt;/font&gt;" style="whiteSpace=wrap;html=1;aspect=fixed;" vertex="1" parent="1">
          <mxGeometry x="-852" y="667" width="80" height="80" as="geometry" />
        </mxCell>
        <mxCell id="RaNo0yJvgZaHMr59IowX-14" style="edgeStyle=none;curved=1;rounded=0;orthogonalLoop=1;jettySize=auto;html=1;exitX=0.5;exitY=0;exitDx=0;exitDy=0;fontSize=12;startSize=8;endSize=8;" edge="1" parent="1" source="RaNo0yJvgZaHMr59IowX-15" target="RaNo0yJvgZaHMr59IowX-3">
          <mxGeometry relative="1" as="geometry" />
        </mxCell>
        <mxCell id="RaNo0yJvgZaHMr59IowX-15" value="&lt;font style=&quot;font-size: 16px;&quot;&gt;student 4&lt;/font&gt;" style="whiteSpace=wrap;html=1;aspect=fixed;" vertex="1" parent="1">
          <mxGeometry x="-642" y="667" width="80" height="80" as="geometry" />
        </mxCell>
        <mxCell id="RaNo0yJvgZaHMr59IowX-16" style="edgeStyle=none;curved=1;rounded=0;orthogonalLoop=1;jettySize=auto;html=1;exitX=0.5;exitY=0;exitDx=0;exitDy=0;entryX=0.5;entryY=1;entryDx=0;entryDy=0;fontSize=12;startSize=8;endSize=8;" edge="1" parent="1" source="RaNo0yJvgZaHMr59IowX-17" target="RaNo0yJvgZaHMr59IowX-27">
          <mxGeometry relative="1" as="geometry" />
        </mxCell>
        <mxCell id="RaNo0yJvgZaHMr59IowX-17" value="&lt;font style=&quot;font-size: 16px;&quot;&gt;student 9&lt;/font&gt;" style="whiteSpace=wrap;html=1;aspect=fixed;" vertex="1" parent="1">
          <mxGeometry x="-1490" y="669" width="80" height="80" as="geometry" />
        </mxCell>
        <mxCell id="RaNo0yJvgZaHMr59IowX-18" style="edgeStyle=none;curved=1;rounded=0;orthogonalLoop=1;jettySize=auto;html=1;exitX=0.5;exitY=0;exitDx=0;exitDy=0;entryX=0.5;entryY=1;entryDx=0;entryDy=0;fontSize=12;startSize=8;endSize=8;" edge="1" parent="1" source="RaNo0yJvgZaHMr59IowX-19" target="RaNo0yJvgZaHMr59IowX-1">
          <mxGeometry relative="1" as="geometry" />
        </mxCell>
        <mxCell id="RaNo0yJvgZaHMr59IowX-19" value="&lt;font style=&quot;font-size: 16px;&quot;&gt;student 5&lt;/font&gt;" style="whiteSpace=wrap;html=1;aspect=fixed;" vertex="1" parent="1">
          <mxGeometry x="-522" y="667" width="80" height="80" as="geometry" />
        </mxCell>
        <mxCell id="RaNo0yJvgZaHMr59IowX-20" style="edgeStyle=none;curved=1;rounded=0;orthogonalLoop=1;jettySize=auto;html=1;exitX=0.5;exitY=0;exitDx=0;exitDy=0;entryX=0.5;entryY=1;entryDx=0;entryDy=0;fontSize=12;startSize=8;endSize=8;" edge="1" parent="1" source="RaNo0yJvgZaHMr59IowX-21" target="RaNo0yJvgZaHMr59IowX-26">
          <mxGeometry relative="1" as="geometry" />
        </mxCell>
        <mxCell id="RaNo0yJvgZaHMr59IowX-21" value="&lt;font style=&quot;font-size: 16px;&quot;&gt;student 10&lt;/font&gt;" style="whiteSpace=wrap;html=1;aspect=fixed;" vertex="1" parent="1">
          <mxGeometry x="-1233" y="663" width="80" height="80" as="geometry" />
        </mxCell>
        <mxCell id="RaNo0yJvgZaHMr59IowX-22" style="edgeStyle=none;curved=1;rounded=0;orthogonalLoop=1;jettySize=auto;html=1;exitX=0.5;exitY=0;exitDx=0;exitDy=0;fontSize=12;startSize=8;endSize=8;entryX=0;entryY=1;entryDx=0;entryDy=0;" edge="1" parent="1" source="RaNo0yJvgZaHMr59IowX-23" target="RaNo0yJvgZaHMr59IowX-4">
          <mxGeometry relative="1" as="geometry" />
        </mxCell>
        <mxCell id="RaNo0yJvgZaHMr59IowX-23" value="&lt;font style=&quot;font-size: 16px;&quot;&gt;student 2&lt;/font&gt;" style="whiteSpace=wrap;html=1;aspect=fixed;" vertex="1" parent="1">
          <mxGeometry x="-963" y="669" width="80" height="80" as="geometry" />
        </mxCell>
        <mxCell id="RaNo0yJvgZaHMr59IowX-24" value="&lt;font style=&quot;font-size: 16px;&quot;&gt;course 5&lt;/font&gt;" style="ellipse;whiteSpace=wrap;html=1;aspect=fixed;" vertex="1" parent="1">
          <mxGeometry x="-754" y="527" width="80" height="80" as="geometry" />
        </mxCell>
        <mxCell id="RaNo0yJvgZaHMr59IowX-25" value="&lt;font style=&quot;font-size: 16px;&quot;&gt;user 4&lt;/font&gt;" style="ellipse;whiteSpace=wrap;html=1;aspect=fixed;" vertex="1" parent="1">
          <mxGeometry x="-374" y="534" width="80" height="80" as="geometry" />
        </mxCell>
        <mxCell id="RaNo0yJvgZaHMr59IowX-26" value="&lt;font style=&quot;font-size: 16px;&quot;&gt;course 9&lt;/font&gt;" style="ellipse;whiteSpace=wrap;html=1;aspect=fixed;" vertex="1" parent="1">
          <mxGeometry x="-1183" y="534" width="80" height="80" as="geometry" />
        </mxCell>
        <mxCell id="RaNo0yJvgZaHMr59IowX-27" value="&lt;font style=&quot;font-size: 16px;&quot;&gt;course 8&lt;/font&gt;" style="ellipse;whiteSpace=wrap;html=1;aspect=fixed;" vertex="1" parent="1">
          <mxGeometry x="-1490" y="530" width="80" height="80" as="geometry" />
        </mxCell>
        <mxCell id="RaNo0yJvgZaHMr59IowX-28" style="edgeStyle=none;curved=1;rounded=0;orthogonalLoop=1;jettySize=auto;html=1;exitX=0.5;exitY=0;exitDx=0;exitDy=0;entryX=0.5;entryY=1;entryDx=0;entryDy=0;fontSize=12;startSize=8;endSize=8;" edge="1" parent="1" source="RaNo0yJvgZaHMr59IowX-29" target="RaNo0yJvgZaHMr59IowX-30">
          <mxGeometry relative="1" as="geometry" />
        </mxCell>
        <mxCell id="RaNo0yJvgZaHMr59IowX-29" value="&lt;font style=&quot;font-size: 16px;&quot;&gt;student 8&lt;/font&gt;" style="whiteSpace=wrap;html=1;aspect=fixed;" vertex="1" parent="1">
          <mxGeometry x="-1341" y="669" width="80" height="80" as="geometry" />
        </mxCell>
        <mxCell id="RaNo0yJvgZaHMr59IowX-30" value="&lt;font style=&quot;font-size: 16px;&quot;&gt;course 7&lt;/font&gt;" style="ellipse;whiteSpace=wrap;html=1;aspect=fixed;" vertex="1" parent="1">
          <mxGeometry x="-1341" y="531" width="80" height="80" as="geometry" />
        </mxCell>
      </root>
    </mxGraphModel>
  </diagram>
</mxfile>
